<mxfile host="www.draw.io" modified="2019-12-11T12:54:25.027Z" agent="Mozilla/5.0 (Windows NT 10.0; Win64; x64) AppleWebKit/537.36 (KHTML, like Gecko) Chrome/78.0.3904.97 Safari/537.36" etag="1jiIsEhLOJzCIkfYNGOG" version="12.3.9" type="github" pages="1">
  <diagram id="6I0OCvxSQrVGMHxT2VVA" name="Page-1">
    <mxGraphModel dx="1490" dy="609" grid="1" gridSize="10" guides="1" tooltips="1" connect="1" arrows="1" fold="1" page="1" pageScale="1" pageWidth="850" pageHeight="1100" math="0" shadow="0">
      <root>
        <mxCell id="0"/>
        <mxCell id="1" parent="0"/>
        <mxCell id="EplZmqz9-yX-gwSmQUmt-13" value="" style="rounded=0;whiteSpace=wrap;html=1;shadow=1;fillColor=#dae8fc;dashed=1;strokeColor=#6c8ebf;" parent="1" vertex="1">
          <mxGeometry x="110.5" y="600" width="670" height="150" as="geometry"/>
        </mxCell>
        <mxCell id="EplZmqz9-yX-gwSmQUmt-15" value="" style="rounded=0;whiteSpace=wrap;html=1;shadow=1;fillColor=#dae8fc;dashed=1;strokeColor=#6c8ebf;" parent="1" vertex="1">
          <mxGeometry x="110" y="790" width="670" height="100" as="geometry"/>
        </mxCell>
        <mxCell id="EplZmqz9-yX-gwSmQUmt-24" value="" style="shape=flexArrow;endArrow=classic;html=1;strokeColor=none;fillColor=#A9C4EB;" parent="1" edge="1">
          <mxGeometry width="50" height="50" relative="1" as="geometry">
            <mxPoint x="417" y="530" as="sourcePoint"/>
            <mxPoint x="417" y="570" as="targetPoint"/>
          </mxGeometry>
        </mxCell>
        <mxCell id="EplZmqz9-yX-gwSmQUmt-3" value="手机" style="verticalLabelPosition=bottom;html=1;verticalAlign=top;align=center;strokeColor=none;fillColor=#00BEF2;shape=mxgraph.azure.mobile;pointerEvents=1;" parent="1" vertex="1">
          <mxGeometry x="232" y="440" width="35" height="50" as="geometry"/>
        </mxCell>
        <mxCell id="EplZmqz9-yX-gwSmQUmt-4" value="pad" style="shape=image;html=1;verticalAlign=top;verticalLabelPosition=bottom;labelBackgroundColor=#ffffff;imageAspect=0;aspect=fixed;image=https://cdn3.iconfinder.com/data/icons/strokeline/128/17_icons-128.png;direction=north;" parent="1" vertex="1">
          <mxGeometry x="372" y="420.5" width="90" height="90" as="geometry"/>
        </mxCell>
        <mxCell id="EplZmqz9-yX-gwSmQUmt-7" value="电脑" style="verticalLabelPosition=bottom;html=1;verticalAlign=top;align=center;strokeColor=none;fillColor=#00BEF2;shape=mxgraph.azure.computer;pointerEvents=1;" parent="1" vertex="1">
          <mxGeometry x="567" y="443" width="50" height="45" as="geometry"/>
        </mxCell>
        <mxCell id="EplZmqz9-yX-gwSmQUmt-11" value="&lt;b&gt;&lt;font style=&quot;font-size: 18px&quot;&gt;业务模块&lt;/font&gt;&lt;/b&gt;" style="text;html=1;strokeColor=none;fillColor=none;align=center;verticalAlign=middle;whiteSpace=wrap;rounded=0;" parent="1" vertex="1">
          <mxGeometry x="45.5" y="590" width="20" height="170" as="geometry"/>
        </mxCell>
        <mxCell id="EplZmqz9-yX-gwSmQUmt-14" value="&lt;b&gt;&lt;font style=&quot;font-size: 18px&quot;&gt;基础模块&lt;/font&gt;&lt;/b&gt;" style="text;html=1;strokeColor=none;fillColor=none;align=center;verticalAlign=middle;whiteSpace=wrap;rounded=0;" parent="1" vertex="1">
          <mxGeometry x="45.5" y="750" width="20" height="170" as="geometry"/>
        </mxCell>
        <mxCell id="EplZmqz9-yX-gwSmQUmt-16" value="&lt;span style=&quot;font-size: 18px&quot;&gt;&lt;b&gt;第三方支持&lt;/b&gt;&lt;/span&gt;" style="text;html=1;strokeColor=none;fillColor=none;align=center;verticalAlign=middle;whiteSpace=wrap;rounded=0;" parent="1" vertex="1">
          <mxGeometry x="45.5" y="895" width="20" height="170" as="geometry"/>
        </mxCell>
        <mxCell id="EplZmqz9-yX-gwSmQUmt-17" value="" style="rounded=0;whiteSpace=wrap;html=1;shadow=1;fillColor=#dae8fc;dashed=1;strokeColor=#6c8ebf;" parent="1" vertex="1">
          <mxGeometry x="111.5" y="930" width="670" height="110" as="geometry"/>
        </mxCell>
        <mxCell id="EplZmqz9-yX-gwSmQUmt-18" value="阿里云存储rds" style="rounded=0;whiteSpace=wrap;html=1;shadow=1;fillColor=#f8cecc;strokeColor=#b85450;" parent="1" vertex="1">
          <mxGeometry x="125.5" y="960" width="120" height="40" as="geometry"/>
        </mxCell>
        <mxCell id="EplZmqz9-yX-gwSmQUmt-19" value="百度地图API" style="rounded=0;whiteSpace=wrap;html=1;shadow=1;fillColor=#f8cecc;strokeColor=#b85450;" parent="1" vertex="1">
          <mxGeometry x="255.5" y="960" width="120" height="40" as="geometry"/>
        </mxCell>
        <mxCell id="EplZmqz9-yX-gwSmQUmt-20" value="安卓pad厂家" style="rounded=0;whiteSpace=wrap;html=1;shadow=1;fillColor=#f8cecc;strokeColor=#b85450;" parent="1" vertex="1">
          <mxGeometry x="385" y="960" width="120" height="40" as="geometry"/>
        </mxCell>
        <mxCell id="EplZmqz9-yX-gwSmQUmt-21" value="二维码生成" style="rounded=0;whiteSpace=wrap;html=1;shadow=1;fillColor=#f8cecc;strokeColor=#b85450;" parent="1" vertex="1">
          <mxGeometry x="515.5" y="960" width="120" height="40" as="geometry"/>
        </mxCell>
        <mxCell id="EplZmqz9-yX-gwSmQUmt-23" value="" style="shape=flexArrow;endArrow=classic;html=1;strokeColor=none;fillColor=#A9C4EB;" parent="1" edge="1">
          <mxGeometry width="50" height="50" relative="1" as="geometry">
            <mxPoint x="249.5" y="530" as="sourcePoint"/>
            <mxPoint x="249.5" y="570" as="targetPoint"/>
          </mxGeometry>
        </mxCell>
        <mxCell id="EplZmqz9-yX-gwSmQUmt-25" value="" style="shape=flexArrow;endArrow=classic;html=1;strokeColor=none;fillColor=#99CCFF;" parent="1" edge="1">
          <mxGeometry width="50" height="50" relative="1" as="geometry">
            <mxPoint x="591.5" y="530" as="sourcePoint"/>
            <mxPoint x="591.5" y="570" as="targetPoint"/>
          </mxGeometry>
        </mxCell>
        <mxCell id="EplZmqz9-yX-gwSmQUmt-26" value="地图模块" style="rounded=0;whiteSpace=wrap;html=1;shadow=1;fillColor=#f8cecc;strokeColor=#b85450;" parent="1" vertex="1">
          <mxGeometry x="125" y="820" width="120" height="40" as="geometry"/>
        </mxCell>
        <mxCell id="7Dhoqbvo-McDRVBPA5o0-2" value="终端管理" style="rounded=0;whiteSpace=wrap;html=1;shadow=1;fillColor=#f8cecc;strokeColor=#b85450;" parent="1" vertex="1">
          <mxGeometry x="255.5" y="820" width="120" height="40" as="geometry"/>
        </mxCell>
        <mxCell id="7Dhoqbvo-McDRVBPA5o0-3" value="用户模块" style="rounded=0;whiteSpace=wrap;html=1;shadow=1;fillColor=#f8cecc;strokeColor=#b85450;" parent="1" vertex="1">
          <mxGeometry x="515.5" y="820" width="120" height="40" as="geometry"/>
        </mxCell>
        <mxCell id="ovE0eIuX_nR3lsCL4_bD-1" value="景区识别" style="rounded=0;whiteSpace=wrap;html=1;shadow=1;fillColor=#f8cecc;strokeColor=#b85450;" parent="1" vertex="1">
          <mxGeometry x="125.5" y="630" width="120" height="40" as="geometry"/>
        </mxCell>
        <mxCell id="ovE0eIuX_nR3lsCL4_bD-2" value="精准停车" style="rounded=0;whiteSpace=wrap;html=1;shadow=1;fillColor=#f8cecc;strokeColor=#b85450;" parent="1" vertex="1">
          <mxGeometry x="256" y="630" width="120" height="40" as="geometry"/>
        </mxCell>
        <mxCell id="ovE0eIuX_nR3lsCL4_bD-3" value="终端监控" style="rounded=0;whiteSpace=wrap;html=1;shadow=1;fillColor=#f8cecc;strokeColor=#b85450;" parent="1" vertex="1">
          <mxGeometry x="386" y="630" width="120" height="40" as="geometry"/>
        </mxCell>
        <mxCell id="ovE0eIuX_nR3lsCL4_bD-4" value="押金管理" style="rounded=0;whiteSpace=wrap;html=1;shadow=1;fillColor=#f8cecc;strokeColor=#b85450;" parent="1" vertex="1">
          <mxGeometry x="516" y="630" width="120" height="40" as="geometry"/>
        </mxCell>
        <mxCell id="ovE0eIuX_nR3lsCL4_bD-5" value="费用管理" style="rounded=0;whiteSpace=wrap;html=1;shadow=1;fillColor=#f8cecc;strokeColor=#b85450;" parent="1" vertex="1">
          <mxGeometry x="646" y="630" width="120" height="40" as="geometry"/>
        </mxCell>
        <mxCell id="ovE0eIuX_nR3lsCL4_bD-6" value="景区地图" style="rounded=0;whiteSpace=wrap;html=1;shadow=1;fillColor=#f8cecc;strokeColor=#b85450;" parent="1" vertex="1">
          <mxGeometry x="125.5" y="680" width="120" height="40" as="geometry"/>
        </mxCell>
        <mxCell id="0481cUIWySNVAWPUIwS7-1" value="微信支付" style="rounded=0;whiteSpace=wrap;html=1;shadow=1;fillColor=#f8cecc;strokeColor=#b85450;" vertex="1" parent="1">
          <mxGeometry x="646" y="960" width="120" height="40" as="geometry"/>
        </mxCell>
        <mxCell id="0481cUIWySNVAWPUIwS7-2" value="智能控车" style="rounded=0;whiteSpace=wrap;html=1;shadow=1;fillColor=#f8cecc;strokeColor=#b85450;" vertex="1" parent="1">
          <mxGeometry x="256" y="680" width="120" height="40" as="geometry"/>
        </mxCell>
        <mxCell id="0481cUIWySNVAWPUIwS7-3" value="电子围栏" style="rounded=0;whiteSpace=wrap;html=1;shadow=1;fillColor=#f8cecc;strokeColor=#b85450;" vertex="1" parent="1">
          <mxGeometry x="386.5" y="680" width="120" height="40" as="geometry"/>
        </mxCell>
        <mxCell id="0481cUIWySNVAWPUIwS7-4" value="智能导游" style="rounded=0;whiteSpace=wrap;html=1;shadow=1;fillColor=#f8cecc;strokeColor=#b85450;" vertex="1" parent="1">
          <mxGeometry x="517" y="680" width="120" height="40" as="geometry"/>
        </mxCell>
        <mxCell id="0481cUIWySNVAWPUIwS7-5" value="车况监控" style="rounded=0;whiteSpace=wrap;html=1;shadow=1;fillColor=#f8cecc;strokeColor=#b85450;" vertex="1" parent="1">
          <mxGeometry x="646" y="680" width="120" height="40" as="geometry"/>
        </mxCell>
        <mxCell id="0481cUIWySNVAWPUIwS7-8" value="支付模块" style="rounded=0;whiteSpace=wrap;html=1;shadow=1;fillColor=#f8cecc;strokeColor=#b85450;" vertex="1" parent="1">
          <mxGeometry x="385.5" y="820" width="120" height="40" as="geometry"/>
        </mxCell>
        <mxCell id="0481cUIWySNVAWPUIwS7-9" value="等" style="rounded=0;whiteSpace=wrap;html=1;shadow=1;fillColor=#f8cecc;strokeColor=#b85450;" vertex="1" parent="1">
          <mxGeometry x="645.5" y="820" width="120" height="40" as="geometry"/>
        </mxCell>
      </root>
    </mxGraphModel>
  </diagram>
</mxfile>
